<svg baseProfile="tiny" xmlns="http://www.w3.org/2000/svg" viewBox="0 0 200 35.2"><path fill="#54504B" d="M12.1 19.1h8v-3h-20.1v3h8v13.6h4.1v-13.6m13.8 13.6h18.1v-3.1h-14v-4.1h8.1v-2.8h-8.1v-3.7h13.8v-2.9h-17.9v16.6M50.4 32.7h4v-6.3h3.8l7 6.3h5.8l-7.9-6.3h2.3c2.7 0 3.9-.9 3.9-3.2v-3.9c0-2.3-1.2-3.2-3.9-3.2h-15v16.6zm13.3-13.7c1.2 0 1.8.2 1.8 1.3v1.9c0 1.1-.6 1.3-1.8 1.3h-9.2v-4.6h9.2M108.1 32.7h4.1v-7.5l10.5 7.5h6.4l-12.8-8.9 11.5-7.7h-5.9l-9.7 6.7v-6.7h-4.1v16.6m25 0h18v-3.1h-13.9v-4.1h8v-2.8h-8v-3.7h13.7v-2.9h-17.8v16.6m24.4 0h18.1v-3.1h-14v-4.1h8.1v-2.8h-8.1v-3.7h13.8v-2.9h-17.9v16.6m34.4-13.6h8.1v-3h-20.1v3h8v13.6h4v-13.6"/><path fill="#54504B" d="M101.7 31.3c-.4-1.1-.4-1.4-.6-2.6-.2-1.1-.2-3.9-.2-4.1 0-5.7-4.4-10.3-9.9-10.7-5.8-.7-11.2.3-15.4-4.5.3 5 2.6 7.8 4.6 10-1.9-.5-4.4-1.2-7.4-4.4.4 6.2 4.1 8.6 6.3 10.5-1.5.3-3.9 0-6.5-2.3 1.6 5.6 6.6 12 17.6 12h13.8s-1.5-1.6-2.3-3.9z"/><g fill="#BEDC92"><path d="M85.5 10.5c1.6.1 6.4-.1 9.8 1.4 1.6.7 3.1 1.7 4.3 2.9 1.3 1.3 2.2 2.7 2.9 4.3l.1.3c.6-1.2 2-4.1 2.2-5.1 1.7-5.1-.3-11.7-5.5-14.3 1.5 1.5 4.1 3.9 3.7 10.6-.5-1.2-3.1-7.4-10.1-7.2 6.1 1.7 7.8 7.9 8 9-7.3-6.6-12.2-1.7-19-2.9.6.5 2 1 3.6 1zM90 16.4c-4.5 0-8.1 3.6-8.1 8.1s3.6 8.1 8.1 8.1c2.2 0 4.2-.9 5.7-2.3v2.1h2.5v-8.2c-.2-4.3-3.8-7.8-8.2-7.8zm0 12.6c-2.5 0-4.5-2-4.5-4.5s2-4.5 4.5-4.5 4.5 2 4.5 4.5-2 4.5-4.5 4.5z"/></g></svg>